<?xml version="1.0" standalone="no"?><!DOCTYPE svg PUBLIC "-//W3C//DTD SVG 1.1//EN" "http://www.w3.org/Graphics/SVG/1.1/DTD/svg11.dtd"><svg t="1584763720363" class="icon" viewBox="0 0 1024 1024" version="1.1" xmlns="http://www.w3.org/2000/svg" p-id="22533" xmlns:xlink="http://www.w3.org/1999/xlink" width="200" height="200"><defs><style type="text/css"></style></defs><path d="M279.2 458.4H752V340H279.2v118.4z m276-79.2h157.6v39.2H555.2v-39.2z m-157.6 0h118.4v39.2H397.6v-39.2z m-78.4 0h39.2v39.2h-39.2v-39.2zM279.2 688H752V569.6H279.2V688z m157.6-79.2h276V648H436.8v-39.2z m-117.6 0h78.4V648h-78.4v-39.2z" p-id="22534" fill="#c3c3c3"></path><path d="M981.6 360.8c0-64-46.4-143.2-101.6-175.2L615.2 35.2c-56-32-147.2-31.2-202.4 0.8L149.6 188.8c-55.2 32-100.8 111.2-100.8 176l0.8 304.8c0 64 46.4 143.2 101.6 175.2L416 996c56 32 147.2 31.2 202.4-0.8l263.2-153.6c55.2-32 100.8-111.2 100.8-176l-0.8-304.8zM791.2 707.2c0 11.2-8.8 20-20 20h-512c-11.2 0-20-8.8-20-20V549.6c0-11.2 8.8-20 20-20h512c11.2 0 20 8.8 20 20v157.6z m0-229.6c0 11.2-8.8 20-20 20h-512c-11.2 0-20-8.8-20-20V320c0-11.2 8.8-20 20-20h512c11.2 0 20 8.8 20 20v157.6z" p-id="22535" fill="#c3c3c3"></path></svg>