<?xml version="1.0" standalone="no"?><!DOCTYPE svg PUBLIC "-//W3C//DTD SVG 1.1//EN" "http://www.w3.org/Graphics/SVG/1.1/DTD/svg11.dtd"><svg t="1584762527941" class="icon" viewBox="0 0 1024 1024" version="1.1" xmlns="http://www.w3.org/2000/svg" p-id="6724" xmlns:xlink="http://www.w3.org/1999/xlink" width="200" height="200"><defs><style type="text/css"></style></defs><path d="M992.00032 415.99584a31.99968 31.99968 0 0 0 0-63.99936h-64.01984v-63.99936h64.01984a31.99968 31.99968 0 0 0 0-63.99936h-64.01984V127.99872a31.96896 31.96896 0 0 0-31.98944-31.99968h-95.99904v-63.99936a31.99968 31.99968 0 0 0-63.99936 0v63.99936h-63.99936v-63.99936a31.99968 31.99968 0 0 0-63.99936 0v63.99936h-63.99936v-63.99936a31.99968 31.99968 0 0 0-63.99936 0v63.99936h-63.99936v-63.99936a31.99968 31.99968 0 0 0-63.99936 0v63.99936h-63.99936v-63.99936a31.99968 31.99968 0 0 0-63.99936 0v63.99936H127.99872A31.983296 31.983296 0 0 0 95.99904 127.99872v95.99904h-63.99936a31.99968 31.99968 0 0 0 0 63.99936h63.99936v63.99936h-63.99936a31.99968 31.99968 0 0 0 0 63.99936h63.99936v64.0096h-63.99936a31.98944 31.98944 0 1 0 0 63.97888h63.99936v64.01984h-63.99936a31.98944 31.98944 0 1 0 0 63.97888h63.99936v64.01984h-63.99936a31.98944 31.98944 0 1 0 0 63.97888h63.99936v96.00928A31.96896 31.96896 0 0 0 127.99872 927.98048h95.99904v64.01984a31.99968 31.99968 0 0 0 63.99936 0v-64.01984h63.99936v64.01984a31.99968 31.99968 0 0 0 63.99936 0v-64.01984h63.99936v64.01984a31.99968 31.99968 0 0 0 63.99936 0v-64.01984h63.99936v64.01984a31.99968 31.99968 0 0 0 63.99936 0v-64.01984h63.99936v64.01984a31.99968 31.99968 0 0 0 63.99936 0v-64.01984H895.99104a31.948481 31.948481 0 0 0 31.98944-31.98944v-96.00928h64.01984a31.98944 31.98944 0 0 0 0-63.97888h-64.01984v-64.01984h64.01984a31.98944 31.98944 0 0 0 0-63.97888h-64.01984v-64.01984h64.01984a31.98944 31.98944 0 0 0 0-63.97888h-64.01984v-64.0096h64.01984z m-127.99872 448.00576H159.9984V159.9984H864.0016V864.0016z m-383.99616-448.00576h-63.99936v64.0096h63.99936v-64.0096z m0 127.98848h-63.99936v64.01984h63.99936v-64.01984z m127.99872-127.98848h-63.99936v64.0096h63.99936v-64.0096z m0 127.98848h-63.99936v64.01984h63.99936v-64.01984z" p-id="6725" fill="#ffffff"></path></svg>