<?xml version="1.0" standalone="no"?><!DOCTYPE svg PUBLIC "-//W3C//DTD SVG 1.1//EN" "http://www.w3.org/Graphics/SVG/1.1/DTD/svg11.dtd"><svg t="1584763421518" class="icon" viewBox="0 0 1024 1024" version="1.1" xmlns="http://www.w3.org/2000/svg" p-id="12905" xmlns:xlink="http://www.w3.org/1999/xlink" width="200" height="200"><defs><style type="text/css"></style></defs><path d="M428.517762 1024c-31.231282 0-62.769756-23.756254-62.769756-76.900631V492.863416L24.559053 115.630492A97.994546 97.994546 0 0 1 3.567536 81.532077 59.697827 59.697827 0 0 1 4.898705 37.705885 59.595429 59.595429 0 0 1 36.43718 7.396182 97.687353 97.687353 0 0 1 75.757876 0.023551H948.288207c15.052454 0 28.26175 2.457543 39.320696 7.372631 14.642863 6.451052 25.599411 16.895611 31.538475 30.309703a59.697827 59.697827 0 0 1 1.331169 43.826192 97.994546 97.994546 0 0 1-20.991517 34.098415L658.502872 492.863416v273.299314c0 51.608413-30.00251 115.299748-69.835193 148.169392l-106.493551 87.754782c-17.612395 14.540466-35.63438 21.913096-53.553968 21.913096z" p-id="12906" fill="#c3c3c3"></path></svg>